<svg viewBox="0 0 512 512"  xmlns="http://www.w3.org/2000/svg"><g fill="#37404D"><path d="M466.488 125.414h-82.866l-48.174-48.29c-.058-.06-.107-.098-.156-.157l-.088-.078c-7.24-7.162-17.18-11.585-28.166-11.585H206.853c-11.642 0-22.022 5.03-29.35 12.954l-.04-.118-47.176 47.273H45.72c-22.13 0-40.074 17.944-40.074 40.073v240.44C5.646 428.057 23.59 446 45.72 446h420.768c22.14 0 40.083-17.943 40.083-40.073v-240.44c0-22.13-17.942-40.073-40.082-40.073zm20.046 280.513c0 11.036-9 20.037-20.047 20.037H45.72c-11.046 0-20.038-9-20.038-20.037v-240.44c0-11.054 8.99-20.036 20.037-20.036H138.592l5.88-5.888 24.253-24.302.49 1.468 23-24.87c3.894-4.207 9.09-6.516 14.637-6.516h100.183c5.293 0 10.302 2.055 14.225 5.93l48.175 48.29 5.87 5.89h91.183c11.045 0 20.047 8.98 20.047 20.037v240.437z"/><path d="M256.103 145.45c-71.928 0-130.238 58.29-130.238 130.22s58.31 130.257 130.238 130.257S386.34 347.597 386.34 275.67s-58.308-130.22-130.237-130.22zm0 240.44c-60.765 0-110.2-49.445-110.2-110.22 0-60.756 49.435-110.182 110.2-110.182s110.2 49.426 110.2 110.182c.002 60.775-49.435 110.22-110.2 110.22z"/><path d="M256.103 185.524c-49.808 0-90.165 40.348-90.165 90.146s40.357 90.184 90.165 90.184 90.165-40.386 90.165-90.184-40.357-90.146-90.165-90.146zm0 160.293c-38.665 0-70.128-31.482-70.128-70.147s31.463-70.11 70.128-70.11 70.128 31.445 70.128 70.11-31.462 70.147-70.127 70.147z"/></g></svg>
